# xmcd
#
# Track frame offsets:
#	150
#	19310
#	36362
#	51237
#	70695
#	89582
#	107587
#	123417
#	137617
#	155945
#
# Disc length: 2339 seconds
#
# Revision: 1
# Processed by: cddbd v1.5PL3 Copyright (c) Steve Scherf et al.
# Submitted via: CDex 1.50Beta5
#
DISCID=8d09210a
DTITLE=沢田聖子 - 坂道の少女
DYEAR=1900
DGENRE=Folk
TTITLE0=さよならも言わずに
TTITLE1=坂道の少女
TTITLE2=はにかんで私
TTITLE3=みどりの頃
TTITLE4=シオン
TTITLE5=キャンパス スケッチ
TTITLE6=春の娘
TTITLE7=ミモザの下で
TTITLE8=17才の感傷
TTITLE9=雨よ流して
EXTD=
EXTT0=
EXTT1=
EXTT2=
EXTT3=
EXTT4=
EXTT5=
EXTT6=
EXTT7=
EXTT8=
EXTT9=
PLAYORDER=
